HIERARCHY
ROOT joint_Root
{
	OFFSET 0.0 0.0 0.0
	CHANNELS 6 Xposition Yposition Zposition Zrotation Xrotation Yrotation 
	JOINT Hips
	{
		OFFSET -0.726466 93.3139 -2.00062
		CHANNELS 6 Xposition Yposition Zposition Zrotation Xrotation Yrotation 
		JOINT Spine
		{
			OFFSET 15.7357 0.0 0.0
			CHANNELS 6 Xposition Yposition Zposition Zrotation Xrotation Yrotation 
			JOINT Chest
			{
				OFFSET 8.98455 -0.406207 0.0
				CHANNELS 6 Xposition Yposition Zposition Zrotation Xrotation Yrotation 
				JOINT Neck
				{
					OFFSET 16.3773 0.0 0.0
					CHANNELS 6 Xposition Yposition Zposition Zrotation Xrotation Yrotation 
					JOINT Head
					{
						OFFSET 6.45672 0.0 0.0
						CHANNELS 6 Xposition Yposition Zposition Zrotation Xrotation Yrotation 
						End Site
						{
							OFFSET 0.0 0.0 0.0
						}
					}
				}
				JOINT Shoulder_L
				{
					OFFSET 12.9942 -0.242716 4.98039
					CHANNELS 6 Xposition Yposition Zposition Zrotation Xrotation Yrotation 
					JOINT UpperArm_L
					{
						OFFSET 5.34809 0.0 0.0
						CHANNELS 6 Xposition Yposition Zposition Zrotation Xrotation Yrotation 
						JOINT LowerArm_L
						{
							OFFSET 24.3286 1.87007e-05 0.0
							CHANNELS 6 Xposition Yposition Zposition Zrotation Xrotation Yrotation 
							JOINT Hand_L
							{
								OFFSET 22.2916 0.0 0.0
								CHANNELS 6 Xposition Yposition Zposition Zrotation Xrotation Yrotation 
								End Site
								{
									OFFSET 0.0 0.0 0.0
								}
							}
						}
					}
				}
				JOINT Shoulder_R
				{
					OFFSET 12.9945 -0.242716 -4.98039
					CHANNELS 6 Xposition Yposition Zposition Zrotation Xrotation Yrotation 
					JOINT UpperArm_R
					{
						OFFSET -5.34813 0.0 0.0
						CHANNELS 6 Xposition Yposition Zposition Zrotation Xrotation Yrotation 
						JOINT LowerArm_R
						{
							OFFSET -24.3289 0.000322201 0.0
							CHANNELS 6 Xposition Yposition Zposition Zrotation Xrotation Yrotation 
							JOINT Hand_R
							{
								OFFSET -22.2915 -0.000108084 0.0
								CHANNELS 6 Xposition Yposition Zposition Zrotation Xrotation Yrotation 
								End Site
								{
									OFFSET 0.0 0.0 0.0
								}
							}
						}
					}
				}
			}
		}
		JOINT UpperLeg_L
		{
			OFFSET -2.19248 -6.46944 0.0
			CHANNELS 6 Xposition Yposition Zposition Zrotation Xrotation Yrotation 
			JOINT LowerLeg_L
			{
				OFFSET 39.0811 0.0 -1.23785e-05
				CHANNELS 6 Xposition Yposition Zposition Zrotation Xrotation Yrotation 
				JOINT Foot_L
				{
					OFFSET 40.9854 0.0 -1.26872e-05
					CHANNELS 6 Xposition Yposition Zposition Zrotation Xrotation Yrotation 
					JOINT Toes_L
					{
						OFFSET 11.7543 0.0 0.0
						CHANNELS 6 Xposition Yposition Zposition Zrotation Xrotation Yrotation 
						End Site
						{
							OFFSET 0.0 0.0 0.0
						}
					}
				}
			}
		}
		JOINT UpperLeg_R
		{
			OFFSET -2.19251 6.46944 0.0
			CHANNELS 6 Xposition Yposition Zposition Zrotation Xrotation Yrotation 
			JOINT LowerLeg_R
			{
				OFFSET -39.0811 -0.00228153 -0.0401928
				CHANNELS 6 Xposition Yposition Zposition Zrotation Xrotation Yrotation 
				JOINT Foot_R
				{
					OFFSET -40.9854 0.0 0.0
					CHANNELS 6 Xposition Yposition Zposition Zrotation Xrotation Yrotation 
					JOINT Toes_R
					{
						OFFSET -11.7543 0.0 0.0
						CHANNELS 6 Xposition Yposition Zposition Zrotation Xrotation Yrotation 
						End Site
						{
							OFFSET 0.0 0.0 0.0
						}
					}
				}
			}
		}
	}
}
MOTION
Frames:	4
Frame Time:	0.0333333
0.000000 0.000000 0.000000 0.000000 0.000000 -0.000000 -0.310540 92.241100 -1.025070 88.080700 -1.393390 4.559140 15.735700 0.000005 -0.000001 83.173200 85.298300 -82.752200 8.984550 -0.406207 -0.000000 1.575260 -1.139900 0.856976 16.377300 -0.000001 -0.000001 1.687490 -2.584370 0.513919 6.456720 -0.000001 -0.000000 5.704240 -2.854450 -1.218760 12.994200 -0.242716 4.980390 -90.107800 0.355477 -73.136500 5.348090 -0.000007 -0.000001 -66.934300 40.157000 -16.253800 24.328600 0.000019 0.000005 1.319980 3.211190 -22.358900 22.291600 -0.000001 0.000005 3.307390 5.476090 -5.599540 12.994500 -0.242716 -4.980390 88.177800 6.178950 -73.533500 -5.348130 -0.000001 -0.000004 -65.687100 39.114200 -16.666500 -24.328900 0.000322 -0.000009 2.723610 8.640710 -17.576200 -22.291500 -0.000108 -0.000004 6.617240 5.377920 -2.232860 -2.192480 -6.469440 -0.000000 -175.849000 -6.730730 -2.246290 39.081100 -0.000007 -0.000012 -0.097715 0.226711 23.316600 40.985400 -0.000006 -0.000013 -0.088634 2.412080 -66.694400 11.754300 -0.000000 0.000003 -0.000038 -0.000447 -16.595000 -2.192510 6.469440 -0.000001 179.195000 14.716400 -179.128000 -39.081100 -0.002282 -0.040193 -0.015223 0.051792 19.701300 -40.985400 0.000008 0.000006 3.785500 6.535850 -66.402600 -11.754300 -0.000006 -0.000006 -0.006067 -0.071445 -19.480800
0.000000 0.000000 0.000000 0.000000 0.000000 -0.000000 -0.325487 92.220200 -1.037920 88.069500 -1.239110 4.687470 15.735700 0.000005 -0.000001 83.003000 85.262000 -82.583300 8.984550 -0.406207 -0.000000 1.644100 -1.176100 0.855555 16.377300 -0.000001 -0.000001 1.645470 -2.569120 0.565595 6.456720 -0.000001 -0.000000 5.814080 -2.728370 -1.251030 12.994200 -0.242716 4.980390 -90.134400 0.450422 -73.384800 5.348090 -0.000007 -0.000001 -65.714200 39.167400 -17.348100 24.328600 0.000019 0.000005 1.303900 3.101230 -22.817500 22.291600 -0.000001 0.000005 3.393210 5.485600 -5.964140 12.994500 -0.242716 -4.980390 88.197400 6.134470 -73.589600 -5.348130 -0.000001 -0.000004 -64.961600 38.931300 -17.165400 -24.328900 0.000322 -0.000009 2.840690 8.450440 -18.663900 -22.291500 -0.000108 -0.000004 5.409070 5.373710 -2.102780 -2.192480 -6.469440 -0.000000 -175.827000 -6.582380 -2.228720 39.081100 -0.000007 -0.000012 -0.097657 0.224784 23.482500 40.985400 -0.000006 -0.000013 -0.093404 2.416620 -66.758600 11.754300 -0.000000 0.000003 -0.000033 -0.000390 -16.592800 -2.192510 6.469440 -0.000001 179.166000 14.824100 -179.046000 -39.081100 -0.002282 -0.040193 -0.017952 0.059019 19.821900 -40.985400 0.000008 0.000006 3.665840 6.479220 -66.452000 -11.754300 -0.000006 -0.000006 -0.006248 -0.073075 -19.547300
0.000000 0.000000 0.000000 0.000000 0.000000 -0.000000 -0.359029 92.220100 -1.095540 88.107900 -1.034060 4.818570 15.735700 0.000005 -0.000001 82.868800 85.218200 -82.471600 8.984550 -0.406207 -0.000000 1.728330 -1.207490 0.811991 16.377300 -0.000001 -0.000001 1.603230 -2.584330 0.515415 6.456720 -0.000001 -0.000000 5.925610 -2.596460 -1.152930 12.994200 -0.242716 4.980390 -90.192500 0.655464 -73.633100 5.348090 -0.000007 -0.000001 -63.382000 37.426100 -19.507800 24.328600 0.000019 0.000005 1.592140 3.602520 -23.859900 22.291600 -0.000001 0.000005 3.375550 5.486870 -6.013470 12.994500 -0.242716 -4.980390 88.193300 6.149180 -73.591600 -5.348130 -0.000001 -0.000004 -63.545800 38.085400 -18.342500 -24.328900 0.000322 -0.000009 3.106060 8.413380 -20.354300 -22.291500 -0.000108 -0.000004 3.766100 5.371710 -2.038250 -2.192480 -6.469440 -0.000000 -175.826000 -6.541680 -2.174450 39.081100 -0.000007 -0.000012 -0.099128 0.228032 23.495200 40.985400 -0.000006 -0.000013 -0.082540 2.557470 -66.703300 11.754300 -0.000000 0.000003 -0.000031 -0.000369 -16.592000 -2.192510 6.469440 -0.000001 179.153000 14.821800 -178.988000 -39.081100 -0.002282 -0.040193 -0.017387 0.057222 19.894900 -40.985400 0.000008 0.000006 3.682500 6.283350 -66.454700 -11.754300 -0.000006 -0.000006 -0.006038 -0.071177 -19.469900
0.000000 0.000000 0.000000 0.000000 0.000000 -0.000000 -0.395001 92.215200 -1.210340 88.146400 -0.751733 5.002720 15.735700 0.000005 -0.000001 82.236700 85.174000 -81.859100 8.984550 -0.406207 -0.000000 1.802390 -1.322650 0.775397 16.377300 -0.000001 -0.000001 1.787990 -2.581440 0.452230 6.456720 -0.000001 -0.000000 5.831670 -2.525930 -1.146080 12.994200 -0.242716 4.980390 -90.240700 0.823312 -73.701100 5.348090 -0.000007 -0.000001 -60.506800 34.299900 -22.489800 24.328600 0.000019 0.000005 2.242260 4.701450 -25.532800 22.291600 -0.000001 0.000005 3.014230 5.477280 -5.644500 12.994500 -0.242716 -4.980390 88.173200 6.171760 -73.476400 -5.348130 -0.000001 -0.000004 -61.393200 36.187300 -20.461600 -24.328900 0.000322 -0.000009 3.714190 8.913610 -22.737600 -22.291500 -0.000108 -0.000004 2.282940 5.361290 -1.715570 -2.192480 -6.469440 -0.000000 -175.834000 -6.360320 -2.149820 39.081100 -0.000007 -0.000012 -0.098858 0.226570 23.572900 40.985400 -0.000006 -0.000013 -0.069689 2.706670 -66.638400 11.754300 -0.000000 0.000003 -0.000037 -0.000437 -16.594600 -2.192510 6.469440 -0.000001 179.114000 14.935000 -178.914000 -39.081100 -0.002282 -0.040193 -0.017295 0.056579 20.020200 -40.985400 0.000008 0.000006 3.682260 6.073590 -66.464000 -11.754300 -0.000006 -0.000006 -0.005986 -0.070706 -19.450700
